<?xml version="1.0" encoding="utf-8"?>
<!-- Generator: Adobe Illustrator 16.0.2, SVG Export Plug-In . SVG Version: 6.00 Build 0)  -->
<!DOCTYPE svg PUBLIC "-//W3C//DTD SVG 1.1//EN" "http://www.w3.org/Graphics/SVG/1.1/DTD/svg11.dtd">
<svg version="1.1" id="圖層_1" xmlns="http://www.w3.org/2000/svg" xmlns:xlink="http://www.w3.org/1999/xlink" x="0px" y="0px"
	 width="24px" height="24px" viewBox="0 0 24 24" enable-background="new 0 0 24 24" xml:space="preserve">
<g>
	<g>
		<path fill="#222222" d="M21.411,5.091c-0.592,0.393-1.806,1.073-1.806,1.073c-1.829-2.593-5.333-4.093-7.535-4.093
			c-4.599,0-7.105,2.65-9.014,5.253C2.942,7.517,3.375,7.603,3.619,7.778c0.362,0.26,0.77,0.564,1.01,0.686
			c0.55,0.277,0.554,0.491,0.693,0.285c0.999-1.486,2.667-3.981,6.504-3.981c1.634,0,4.21,1.356,5.322,2.88
			c0,0-1.268,0.661-1.88,1.053c-0.342,0.219-0.289,0.507,0.182,0.769c1.445,0.8,4.557,2.478,5.768,3.198
			c0.705,0.419,0.771,0.018,0.771-0.428c0-1.31,0.003-5.057,0.013-6.683C22.004,5.056,21.877,4.782,21.411,5.091z M20.382,16.223
			c-0.362-0.261-0.77-0.564-1.011-0.687c-0.55-0.276-0.554-0.49-0.692-0.284c-0.999,1.486-2.668,3.981-6.505,3.981
			c-1.634,0-4.209-1.355-5.321-2.88c0,0,1.267-0.661,1.88-1.054c0.341-0.218,0.289-0.506-0.182-0.767
			c-1.444-0.801-4.556-2.479-5.767-3.199c-0.706-0.42-0.771-0.019-0.771,0.427c0,1.311-0.002,5.058-0.013,6.684
			c-0.003,0.501,0.123,0.775,0.589,0.465c0.591-0.393,1.806-1.072,1.806-1.072c1.829,2.592,5.333,4.092,7.534,4.092
			c4.599,0,7.106-2.649,9.014-5.253C21.059,16.484,20.626,16.398,20.382,16.223z"/>
	</g>
</g>
</svg>
