<?xml version="1.0" encoding="utf-8"?>
<!-- Generator: Adobe Illustrator 16.0.2, SVG Export Plug-In . SVG Version: 6.00 Build 0)  -->
<!DOCTYPE svg PUBLIC "-//W3C//DTD SVG 1.1//EN" "http://www.w3.org/Graphics/SVG/1.1/DTD/svg11.dtd">
<svg version="1.1" id="圖層_1" xmlns="http://www.w3.org/2000/svg" xmlns:xlink="http://www.w3.org/1999/xlink" x="0px" y="0px"
	 width="16px" height="16px" viewBox="0 0 16 16" enable-background="new 0 0 16 16" xml:space="preserve">
<g>
	<g>
		<path fill="#FFFFFF" d="M15.5,6h-1.641l-0.287-0.865l1.281-1.281c0.191-0.195,0.191-0.512,0-0.707l-2-2
			c-0.195-0.195-0.516-0.195-0.707,0l-1.281,1.282L10,2.14V0.5C10,0.224,9.775,0,9.5,0h-3C6.225,0,6,0.224,6,0.5v1.64L5.135,2.428
			L3.854,1.146c-0.195-0.195-0.511-0.195-0.707,0l-2,2c-0.195,0.195-0.195,0.512,0,0.707l1.281,1.281L2.139,6H0.5
			C0.224,6,0,6.225,0,6.5v3C0,9.775,0.224,10,0.5,10h1.639l0.289,0.865l-1.281,1.281c-0.195,0.191-0.195,0.512,0,0.707l2,2
			c0.196,0.192,0.512,0.192,0.707,0l1.281-1.281L6,13.859V15.5C6,15.775,6.225,16,6.5,16h3c0.275,0,0.5-0.225,0.5-0.5v-1.641
			l0.865-0.287l1.281,1.281c0.191,0.192,0.512,0.192,0.707,0l2-2c0.191-0.195,0.191-0.516,0-0.707l-1.281-1.281L13.859,10H15.5
			c0.275,0,0.5-0.225,0.5-0.5v-3C16,6.225,15.775,6,15.5,6z M15,9h-1.5c-0.216,0-0.406,0.139-0.475,0.342l-0.5,1.5
			c-0.063,0.18-0.014,0.379,0.121,0.512l1.146,1.146L12.5,13.793l-1.146-1.146c-0.133-0.133-0.332-0.181-0.512-0.121l-1.5,0.5
			C9.139,13.094,9,13.284,9,13.5V15H7v-1.5c0-0.216-0.139-0.406-0.342-0.475l-1.5-0.5c-0.179-0.063-0.377-0.017-0.511,0.121
			L3.5,13.793L2.207,12.5l1.146-1.146c0.133-0.133,0.181-0.332,0.121-0.512l-0.5-1.5C2.906,9.139,2.715,9,2.5,9H1V7h1.5
			c0.215,0,0.406-0.139,0.475-0.342l0.5-1.5c0.06-0.18,0.012-0.378-0.121-0.512L2.207,3.5L3.5,2.207l1.146,1.146
			c0.133,0.134,0.332,0.18,0.511,0.121l1.5-0.5C6.861,2.906,7,2.715,7,2.5V1h2v1.5c0,0.215,0.139,0.406,0.342,0.475l1.5,0.5
			c0.18,0.06,0.379,0.013,0.512-0.121L12.5,2.207L13.793,3.5l-1.146,1.146c-0.133,0.134-0.181,0.332-0.121,0.512l0.5,1.5
			C13.094,6.861,13.284,7,13.5,7H15V9z M8,6C6.896,6,6,6.896,6,8c0,1.104,0.896,2,2,2c1.104,0,2-0.896,2-2C10,6.896,9.104,6,8,6z
			 M8,9C7.449,9,7,8.551,7,8c0-0.551,0.449-1,1-1s1,0.449,1,1C9,8.551,8.551,9,8,9z"/>
	</g>
</g>
</svg>
