<?xml version="1.0" encoding="utf-8"?>
<!-- Generator: Adobe Illustrator 16.0.2, SVG Export Plug-In . SVG Version: 6.00 Build 0)  -->
<!DOCTYPE svg PUBLIC "-//W3C//DTD SVG 1.1//EN" "http://www.w3.org/Graphics/SVG/1.1/DTD/svg11.dtd">
<svg version="1.1" id="圖層_1" xmlns="http://www.w3.org/2000/svg" xmlns:xlink="http://www.w3.org/1999/xlink" x="0px" y="0px"
	 width="16px" height="16px" viewBox="0 0 16 16" enable-background="new 0 0 16 16" xml:space="preserve">
<line fill="none" x1="8201" y1="18.741" x2="-8182" y2="18.741"/>
<path fill="#333333" d="M16,15.113l-4.332-4.334c0.941-1.139,1.509-2.6,1.509-4.191C13.177,2.956,10.223,0,6.589,0
	C2.956,0,0,2.956,0,6.588c0,3.633,2.956,6.588,6.589,6.588c1.591,0,3.052-0.566,4.19-1.509L15.113,16 M1.255,6.588
	c0-2.941,2.394-5.333,5.334-5.333c2.94,0,5.333,2.392,5.333,5.333c0,2.941-2.393,5.333-5.333,5.333
	C3.649,11.921,1.255,9.529,1.255,6.588z"/>
</svg>
