<?xml version="1.0" encoding="utf-8"?>
<!-- Generator: Adobe Illustrator 16.0.2, SVG Export Plug-In . SVG Version: 6.00 Build 0)  -->
<!DOCTYPE svg PUBLIC "-//W3C//DTD SVG 1.1//EN" "http://www.w3.org/Graphics/SVG/1.1/DTD/svg11.dtd">
<svg version="1.1" id="圖層_1" xmlns="http://www.w3.org/2000/svg" xmlns:xlink="http://www.w3.org/1999/xlink" x="0px" y="0px"
	 width="16px" height="16px" viewBox="0 0 16 16" enable-background="new 0 0 16 16" xml:space="preserve">
<g>
	<g>
		<path fill="#FFFFFF" d="M8,10.25c2.068,0,3.75-2.13,3.75-4.75c0-2.619-1.682-4.75-3.75-4.75c-2.068,0-3.75,2.131-3.75,4.75
			C4.25,8.12,5.932,10.25,8,10.25z M8,1.75c1.491,0,2.75,1.717,2.75,3.75S9.491,9.25,8,9.25S5.25,7.533,5.25,5.5S6.509,1.75,8,1.75z
			 M15.975,14.092l-1-3c-0.052-0.156-0.178-0.277-0.336-0.322l-3.5-1c-0.121-0.035-0.25-0.021-0.361,0.033L8,11.191L5.224,9.8
			C5.112,9.744,4.983,9.734,4.863,9.77l-3.5,1c-0.159,0.045-0.285,0.166-0.337,0.319l-1,3C-0.025,14.245,0,14.662,0.094,14.793
			c0.094,0.13,0.245,0.457,0.406,0.457h15.001c0.16,0,0.312-0.327,0.405-0.457C16,14.662,16.025,14.245,15.975,14.092z M1.194,14.25
			l0.697-2.342l3.06-0.999l2.826,1.351c0.141,0.07,0.307,0.039,0.445-0.031l2.826-1.429l3.062,1.116l0.697,2.334H1.194z"/>
	</g>
</g>
</svg>
